<svg version="1.0" xmlns="http://www.w3.org/2000/svg"
 width="512.000000pt" height="512.000000pt" viewBox="0 0 512.000000 512.000000"
 preserveAspectRatio="xMidYMid meet">

<g transform="translate(0.000000,512.000000) scale(0.100000,-0.100000)"
fill="#b10202" stroke="none">
<path d="M2250 4674 c-45 -20 -77 -50 -101 -96 -15 -30 -19 -59 -19 -143 l0
-105 -410 0 c-256 0 -428 -4 -460 -11 -78 -17 -139 -63 -175 -133 -29 -58 -30
-65 -33 -218 l-4 -158 1611 0 1611 0 0 148 c0 166 -11 214 -61 275 -17 21 -54
50 -83 65 l-51 27 -436 3 -436 3 -5 109 c-4 99 -7 113 -34 156 -19 31 -44 56
-73 71 -44 23 -45 23 -425 23 -318 -1 -387 -3 -416 -16z"/>
<path d="M1280 1999 c0 -1731 -5 -1608 64 -1650 30 -18 76 -19 1316 -19 1257
0 1286 1 1317 20 68 41 63 -85 63 1645 l0 1565 -1380 0 -1380 0 0 -1561z m854
1121 l26 -10 0 -1163 c0 -891 -3 -1166 -12 -1175 -17 -17 -279 -17 -296 0 -9
9 -12 284 -12 1175 0 1096 1 1163 18 1172 22 13 243 14 276 1z m667 0 c19 -10
19 -34 19 -1173 0 -891 -3 -1166 -12 -1175 -17 -17 -279 -17 -296 0 -9 9 -12
283 -12 1169 l0 1158 22 15 c17 12 50 16 141 16 65 0 127 -5 138 -10z m669
-10 c20 -20 20 -33 20 -1169 0 -1032 -2 -1151 -16 -1165 -12 -13 -41 -16 -153
-16 -93 0 -141 4 -149 12 -9 9 -12 283 -12 1169 l0 1158 22 15 c17 12 50 16
145 16 110 0 125 -2 143 -20z"/>
</g>
</svg>
